<svg width="100" height="24" viewBox="0 0 100 24" fill="none" xmlns="http://www.w3.org/2000/svg">
<path d="M0.25 1.63968V4.51584H6.76538C6.68462 5.13408 6.46923 5.59104 6.17308 6.02112H0.788462V8.54784H4.34231C3.66923 9.408 2.67308 10.2682 0.653846 11.1283V14.3002C6.09231 12.1498 10.2385 7.47264 10.2385 3.60192V1.63968H0.25ZM16.7538 0.564478V6.50496H14.7615V0.564478H11.6923V13.6282H14.7615V9.08544H16.7538V13.6282H19.8231V0.564478H16.7538ZM3.72308 14.9722V23.0362H19.7154V14.9722H3.72308ZM16.7538 20.1331H6.65769V17.8752H16.7538V20.1331ZM22.2407 1.45152V4.22016H35.0561V1.45152H22.2407ZM33.7099 5.42976H30.7214L29.2676 10.0262H28.0022L26.5753 5.42976H23.5868L25.2022 10.0262H22.2407V12.7411H34.7868V10.0262H32.0945L33.7099 5.42976ZM36.9945 0.537598V13.1981H40.4407V0.537598H36.9945ZM27.4368 15.456C25.9561 15.456 23.9637 16.2624 23.9637 18.3322V20.375C23.9637 21.9072 25.2291 23.1706 27.1945 23.1706H37.533C39.4714 23.1706 40.7099 22.0685 40.7099 20.2406V18.3053C40.7099 16.2893 39.1753 15.456 37.2368 15.456H27.4368ZM36.2945 18.3322C37.0214 18.3322 37.533 18.7354 37.533 19.2461V19.7568C37.533 20.2675 36.9945 20.5632 36.3484 20.5632H28.6753C27.9753 20.5632 27.383 20.5632 27.383 19.7837L27.4099 19.0848C27.4368 18.6816 27.5984 18.3322 28.6484 18.3322H36.2945ZM56.1495 6.1632H53.2264V15.6864C52.1111 16.128 46.5149 18.1824 42.2841 17.3376V19.9872C43.6687 20.1024 45.0341 20.0832 46.3611 19.9488C48.6303 19.7376 51.3803 19.0848 53.2649 17.4144V22.3296H56.1495V6.1632ZM45.6303 6.5856C44.0918 6.5856 42.9572 7.7568 42.9572 9.216V12.0192C42.9572 13.4784 44.2457 14.4384 45.6303 14.4384H47.938C49.7072 14.4384 50.7649 13.44 50.7649 11.8272V9.216C50.7649 7.7568 49.7457 6.5856 48.1495 6.5856H45.6303ZM48.438 11.3088C48.438 11.9424 47.9572 12.4224 47.3226 12.4224H46.4957C45.8611 12.4224 45.2841 11.9424 45.2841 11.3088V9.7152C45.2841 9.1008 45.8611 8.6208 46.4957 8.6208H47.3226C47.9572 8.6208 48.438 9.1008 48.438 9.7152V11.3088ZM69.789 1.93536H58.5352V12.8486H69.789V1.93536ZM61.2813 22.9018H77.139V19.7299H64.5929V15.4022H61.2813V22.9018ZM76.8698 14.9453V0.564478H73.4237V14.9453H76.8698ZM66.5852 5.02656V9.8112H61.739V5.02656H66.5852ZM97.4 15.671H81.1653V18.7622H94.1153C94.1422 19.2192 94.1153 19.6762 94.0345 20.1869C93.8999 21.047 93.6037 22.2298 92.9845 23.4125H96.2962C96.4846 23.0093 96.6731 22.5792 96.8346 22.0954C97.1308 21.2621 97.4 20.16 97.4 18.7891V15.671ZM99.4462 10.8326H91.1268V8.064H87.3845V10.8326H79.0114V13.9238H99.4462V10.8326ZM81.1922 0.564478V3.27936H86.6307C86.3345 4.3008 83.7768 6.28992 81.2999 7.09632V9.75744C83.6153 9.19296 87.1961 7.74144 89.0537 5.48352C90.8576 7.5264 93.1999 9.0048 96.7808 9.408V6.96192C94.923 6.4512 92.5807 5.26848 91.2884 3.27936H96.8885V0.564478H81.1922Z" fill="#1E1E1E"/>
<path d="M0.250005 1.63964V1.49564H0.105774V1.63964H0.250005ZM0.250005 4.5158H0.105774V4.6598H0.250005V4.5158ZM6.76539 4.5158L6.90841 4.53442L6.92966 4.3718H6.76539V4.5158ZM6.17308 6.02108V6.16508H6.24896L6.29194 6.10266L6.17308 6.02108ZM0.788466 6.02108V5.87708H0.644235V6.02108H0.788466ZM0.788466 8.5478H0.644235V8.6918H0.788466V8.5478ZM4.34231 8.5478L4.45597 8.63645L4.63802 8.4038H4.34231V8.5478ZM0.653851 11.1283L0.597249 10.9958L0.50962 11.0331V11.1283H0.653851ZM0.653851 14.3001H0.50962V14.512L0.706959 14.434L0.653851 14.3001ZM10.2385 1.63964H10.3827V1.49564H10.2385V1.63964ZM16.7538 0.564435V0.420435H16.6096V0.564435H16.7538ZM16.7538 6.50492V6.64892H16.8981V6.50492H16.7538ZM14.7615 6.50492H14.6173V6.64892H14.7615V6.50492ZM14.7615 0.564435H14.9058V0.420435H14.7615V0.564435ZM11.6923 0.564435V0.420435H11.5481V0.564435H11.6923ZM11.6923 13.6281H11.5481V13.7721H11.6923V13.6281ZM14.7615 13.6281V13.7721H14.9058V13.6281H14.7615ZM14.7615 9.0854V8.9414H14.6173V9.0854H14.7615ZM16.7538 9.0854H16.8981V8.9414H16.7538V9.0854ZM16.7538 13.6281H16.6096V13.7721H16.7538V13.6281ZM19.8231 13.6281V13.7721H19.9673V13.6281H19.8231ZM19.8231 0.564435H19.9673V0.420435H19.8231V0.564435ZM3.72308 14.9721V14.8281H3.57885V14.9721H3.72308ZM3.72308 23.0361H3.57885V23.1801H3.72308V23.0361ZM19.7154 23.0361V23.1801H19.8596V23.0361H19.7154ZM19.7154 14.9721H19.8596V14.8281H19.7154V14.9721ZM16.7538 20.1331V20.2771H16.8981V20.1331H16.7538ZM6.6577 20.1331H6.51347V20.2771H6.6577V20.1331ZM6.6577 17.8752V17.7312H6.51347V17.8752H6.6577ZM16.7538 17.8752H16.8981V17.7312H16.7538V17.8752ZM0.105774 1.63964V4.5158H0.394235V1.63964H0.105774ZM0.250005 4.6598H6.76539V4.3718H0.250005V4.6598ZM6.62237 4.49717C6.54514 5.08836 6.34026 5.52411 6.05423 5.93949L6.29194 6.10266C6.59821 5.65788 6.8241 5.17971 6.90841 4.53442L6.62237 4.49717ZM6.17308 5.87708H0.788466V6.16508H6.17308V5.87708ZM0.644235 6.02108V8.5478H0.932697V6.02108H0.644235ZM0.788466 8.6918H4.34231V8.4038H0.788466V8.6918ZM4.22866 8.45914C3.57307 9.29695 2.59809 10.1435 0.597249 10.9958L0.710453 11.2608C2.74807 10.3927 3.7654 9.51896 4.45597 8.63645L4.22866 8.45914ZM0.50962 11.1283V14.3001H0.798082V11.1283H0.50962ZM0.706959 14.434C3.44674 13.3507 5.86168 11.6309 7.59323 9.69192C9.32245 7.75561 10.3827 5.58586 10.3827 3.60188H10.0942C10.0942 5.4886 9.08141 7.59278 7.37793 9.50028C5.67679 11.4051 3.29943 13.0992 0.600743 14.1662L0.706959 14.434ZM10.3827 3.60188V1.63964H10.0942V3.60188H10.3827ZM10.2385 1.49564H0.250005V1.78364H10.2385V1.49564ZM16.6096 0.564435V6.50492H16.8981V0.564435H16.6096ZM16.7538 6.36092H14.7615V6.64892H16.7538V6.36092ZM14.9058 6.50492V0.564435H14.6173V6.50492H14.9058ZM14.7615 0.420435H11.6923V0.708435H14.7615V0.420435ZM11.5481 0.564435V13.6281H11.8365V0.564435H11.5481ZM11.6923 13.7721H14.7615V13.4841H11.6923V13.7721ZM14.9058 13.6281V9.0854H14.6173V13.6281H14.9058ZM14.7615 9.2294H16.7538V8.9414H14.7615V9.2294ZM16.6096 9.0854V13.6281H16.8981V9.0854H16.6096ZM16.7538 13.7721H19.8231V13.4841H16.7538V13.7721ZM19.9673 13.6281V0.564435H19.6788V13.6281H19.9673ZM19.8231 0.420435H16.7538V0.708435H19.8231V0.420435ZM3.57885 14.9721V23.0361H3.86731V14.9721H3.57885ZM3.72308 23.1801H19.7154V22.8921H3.72308V23.1801ZM19.8596 23.0361V14.9721H19.5712V23.0361H19.8596ZM19.7154 14.8281H3.72308V15.1161H19.7154V14.8281ZM16.7538 19.9891H6.6577V20.2771H16.7538V19.9891ZM6.80193 20.1331V17.8752H6.51347V20.1331H6.80193ZM6.6577 18.0192H16.7538V17.7312H6.6577V18.0192ZM16.6096 17.8752V20.1331H16.8981V17.8752H16.6096ZM22.2407 1.45148V1.30748H22.0964V1.45148H22.2407ZM22.2407 4.22012H22.0964V4.36412H22.2407V4.22012ZM35.0561 4.22012V4.36412H35.2003V4.22012H35.0561ZM35.0561 1.45148H35.2003V1.30748H35.0561V1.45148ZM33.7099 5.42972L33.8461 5.47739L33.9134 5.28572H33.7099V5.42972ZM30.7214 5.42972V5.28572H30.6158L30.5839 5.38635L30.7214 5.42972ZM29.2676 10.0262V10.1702H29.3733L29.4052 10.0696L29.2676 10.0262ZM28.0022 10.0262L27.8644 10.0688L27.896 10.1702H28.0022V10.0262ZM26.5753 5.42972L26.7131 5.38708L26.6816 5.28572H26.5753V5.42972ZM23.5868 5.42972V5.28572H23.3834L23.4508 5.47739L23.5868 5.42972ZM25.2022 10.0262V10.1702H25.4057L25.3384 9.97848L25.2022 10.0262ZM22.2407 10.0262V9.8822H22.0964V10.0262H22.2407ZM22.2407 12.7411H22.0964V12.8851H22.2407V12.7411ZM34.7868 12.7411V12.8851H34.9311V12.7411H34.7868ZM34.7868 10.0262H34.9311V9.8822H34.7868V10.0262ZM32.0945 10.0262L31.9585 9.97848L31.8911 10.1702H32.0945V10.0262ZM36.9945 0.537555V0.393555H36.8503V0.537555H36.9945ZM36.9945 13.198H36.8503V13.342H36.9945V13.198ZM40.4407 13.198V13.342H40.5849V13.198H40.4407ZM40.4407 0.537555H40.5849V0.393555H40.4407V0.537555ZM27.383 19.7836L27.2388 19.7781V19.7836H27.383ZM27.4099 19.0848L27.266 19.0752L27.2658 19.0792L27.4099 19.0848ZM22.0964 1.45148V4.22012H22.3849V1.45148H22.0964ZM22.2407 4.36412H35.0561V4.07612H22.2407V4.36412ZM35.2003 4.22012V1.45148H34.9118V4.22012H35.2003ZM35.0561 1.30748H22.2407V1.59548H35.0561V1.30748ZM33.7099 5.28572H30.7214V5.57372H33.7099V5.28572ZM30.5839 5.38635L29.1301 9.9828L29.4052 10.0696L30.8589 5.47308L30.5839 5.38635ZM29.2676 9.8822H28.0022V10.1702H29.2676V9.8822ZM28.14 9.98357L26.7131 5.38708L26.4375 5.47235L27.8644 10.0688L28.14 9.98357ZM26.5753 5.28572H23.5868V5.57372H26.5753V5.28572ZM23.4508 5.47739L25.0662 10.0739L25.3384 9.97848L23.723 5.38204L23.4508 5.47739ZM25.2022 9.8822H22.2407V10.1702H25.2022V9.8822ZM22.0964 10.0262V12.7411H22.3849V10.0262H22.0964ZM22.2407 12.8851H34.7868V12.5971H22.2407V12.8851ZM34.9311 12.7411V10.0262H34.6426V12.7411H34.9311ZM34.7868 9.8822H32.0945V10.1702H34.7868V9.8822ZM32.2307 10.0739L33.8461 5.47739L33.5739 5.38204L31.9585 9.97848L32.2307 10.0739ZM36.8503 0.537555V13.198H37.1388V0.537555H36.8503ZM36.9945 13.342H40.4407V13.054H36.9945V13.342ZM40.5849 13.198V0.537555H40.2964V13.198H40.5849ZM40.4407 0.393555H36.9945V0.681556H40.4407V0.393555ZM27.4368 15.312C26.6739 15.312 25.7761 15.5189 25.0643 15.9985C24.3471 16.4818 23.8195 17.2429 23.8195 18.3321H24.108C24.108 17.3516 24.5765 16.6746 25.2257 16.2372C25.8803 15.7962 26.7189 15.6 27.4368 15.6V15.312ZM23.8195 18.3321V20.375H24.108V18.3321H23.8195ZM23.8195 20.375C23.8195 22 25.1635 23.3145 27.1945 23.3145V23.0265C25.2948 23.0265 24.108 21.8143 24.108 20.375H23.8195ZM27.1945 23.3145H37.533V23.0265H27.1945V23.3145ZM37.533 23.3145C38.5289 23.3145 39.3611 23.0311 39.9457 22.4973C40.5319 21.9619 40.8541 21.1885 40.8541 20.2406H40.5657C40.5657 21.1205 40.2687 21.8121 39.7511 22.2847C39.2318 22.7589 38.4755 23.0265 37.533 23.0265V23.3145ZM40.8541 20.2406V18.3052H40.5657V20.2406H40.8541ZM40.8541 18.3052C40.8541 17.2558 40.4521 16.4986 39.7859 16.0086C39.1263 15.5236 38.2237 15.312 37.2368 15.312V15.6C38.1885 15.6 39.0224 15.8049 39.6148 16.2406C40.2005 16.6712 40.5657 17.3387 40.5657 18.3052H40.8541ZM37.2368 15.312H27.4368V15.6H37.2368V15.312ZM36.2945 18.4761C36.9822 18.4761 37.3888 18.8499 37.3888 19.246H37.6772C37.6772 18.6207 37.0607 18.1881 36.2945 18.1881V18.4761ZM37.3888 19.246V19.7568H37.6772V19.246H37.3888ZM37.3888 19.7568C37.3888 19.9535 37.2879 20.1134 37.1052 20.2302C36.9189 20.3494 36.6518 20.4192 36.3484 20.4192V20.7072C36.6912 20.7072 37.0164 20.6291 37.2608 20.4727C37.5089 20.314 37.6772 20.0708 37.6772 19.7568H37.3888ZM36.3484 20.4192H28.6753V20.7072H36.3484V20.4192ZM28.6753 20.4192C28.4989 20.4192 28.3366 20.4191 28.1894 20.4074C28.042 20.3957 27.9195 20.3731 27.8218 20.3327C27.7269 20.2934 27.6576 20.2385 27.6099 20.1598C27.561 20.0791 27.5272 19.961 27.5272 19.7836H27.2388C27.2388 19.996 27.279 20.1702 27.3631 20.3089C27.4483 20.4494 27.5708 20.5406 27.7114 20.5988C27.8494 20.6558 28.0063 20.6818 28.1666 20.6945C28.3274 20.7073 28.5016 20.7072 28.6753 20.7072V20.4192ZM27.5271 19.7892L27.554 19.0903L27.2658 19.0792L27.2388 19.7781L27.5271 19.7892ZM27.5538 19.0944C27.5663 18.9077 27.6076 18.7704 27.7348 18.6703C27.8709 18.5632 28.1329 18.4761 28.6484 18.4761V18.1881C28.1138 18.1881 27.7701 18.2758 27.5562 18.4441C27.3334 18.6195 27.2805 18.8586 27.266 19.0752L27.5538 19.0944ZM28.6484 18.4761H36.2945V18.1881H28.6484V18.4761ZM56.1495 6.16316H56.2938V6.01916H56.1495V6.16316ZM53.2264 6.16316V6.01916H53.0822V6.16316H53.2264ZM53.2264 15.6864L53.2796 15.8202L53.3707 15.7842V15.6864H53.2264ZM42.2841 17.3376L42.3124 17.1963L42.1399 17.1619V17.3376H42.2841ZM42.2841 19.9872H42.1399V20.1196L42.2721 20.1307L42.2841 19.9872ZM46.3611 19.9488L46.3476 19.8053L46.3464 19.8055L46.3611 19.9488ZM53.2649 17.4144H53.4091V17.094L53.1691 17.3066L53.2649 17.4144ZM53.2649 22.3296H53.1207V22.4736H53.2649V22.3296ZM56.1495 22.3296V22.4736H56.2938V22.3296H56.1495ZM56.1495 6.01916H53.2264V6.30716H56.1495V6.01916ZM53.0822 6.16316V15.6864H53.3707V6.16316H53.0822ZM53.1733 15.5525C52.6199 15.7716 50.9495 16.3928 48.8919 16.8538C46.8313 17.3156 44.3982 17.6129 42.3124 17.1963L42.2559 17.4788C44.4008 17.907 46.8811 17.5995 48.9551 17.1349C51.0321 16.6695 52.7176 16.0427 53.2796 15.8202L53.1733 15.5525ZM42.1399 17.3376V19.9872H42.4284V17.3376H42.1399ZM42.2721 20.1307C43.6659 20.2466 45.0402 20.2272 46.3756 20.092L46.3464 19.8055C45.0281 19.9391 43.6715 19.9581 42.2961 19.8436L42.2721 20.1307ZM46.3744 20.0922C48.6536 19.88 51.4413 19.2232 53.3607 17.5221L53.1691 17.3066C51.3192 18.9463 48.6069 19.5951 46.3476 19.8053L46.3744 20.0922ZM53.1207 17.4144V22.3296H53.4091V17.4144H53.1207ZM53.2649 22.4736H56.1495V22.1856H53.2649V22.4736ZM56.2938 22.3296V6.16316H56.0053V22.3296H56.2938ZM45.6303 6.44156C44.0121 6.44156 42.813 7.67723 42.813 9.21596H43.1014C43.1014 7.83628 44.1714 6.72956 45.6303 6.72956V6.44156ZM42.813 9.21596V12.0192H43.1014V9.21596H42.813ZM42.813 12.0192C42.813 13.5783 44.1881 14.5824 45.6303 14.5824V14.2944C44.3032 14.2944 43.1014 13.3784 43.1014 12.0192H42.813ZM45.6303 14.5824H47.938V14.2944H45.6303V14.5824ZM47.938 14.5824C48.8491 14.5824 49.5944 14.325 50.1132 13.843C50.6331 13.3598 50.9091 12.6661 50.9091 11.8272H50.6207C50.6207 12.601 50.3678 13.2129 49.9166 13.6321C49.4641 14.0525 48.796 14.2944 47.938 14.2944V14.5824ZM50.9091 11.8272V9.21596H50.6207V11.8272H50.9091ZM50.9091 9.21596C50.9091 7.68361 49.8315 6.44156 48.1495 6.44156V6.72956C49.6597 6.72956 50.6207 7.8299 50.6207 9.21596H50.9091ZM48.1495 6.44156H45.6303V6.72956H48.1495V6.44156ZM48.2938 11.3088C48.2938 11.8629 47.8775 12.2784 47.3226 12.2784V12.5664C48.0368 12.5664 48.5822 12.0218 48.5822 11.3088H48.2938ZM47.3226 12.2784H46.4957V12.5664H47.3226V12.2784ZM46.4957 12.2784C45.9248 12.2784 45.4284 11.8479 45.4284 11.3088H45.1399C45.1399 12.0368 45.7972 12.5664 46.4957 12.5664V12.2784ZM45.4284 11.3088V9.71516H45.1399V11.3088H45.4284ZM45.4284 9.71516C45.4284 9.19678 45.9231 8.76476 46.4957 8.76476V8.47676C45.7989 8.47676 45.1399 9.00473 45.1399 9.71516H45.4284ZM46.4957 8.76476H47.3226V8.47676H46.4957V8.76476ZM47.3226 8.76476C47.8791 8.76476 48.2938 9.18192 48.2938 9.71516H48.5822C48.5822 9.01959 48.0352 8.47676 47.3226 8.47676V8.76476ZM48.2938 9.71516V11.3088H48.5822V9.71516H48.2938ZM69.789 1.93532H69.9333V1.79132H69.789V1.93532ZM58.5352 1.93532V1.79132H58.391V1.93532H58.5352ZM58.5352 12.8486H58.391V12.9926H58.5352V12.8486ZM69.789 12.8486V12.9926H69.9333V12.8486H69.789ZM61.2813 22.9017H61.1371V23.0457H61.2813V22.9017ZM77.139 22.9017V23.0457H77.2833V22.9017H77.139ZM77.139 19.7299H77.2833V19.5859H77.139V19.7299ZM64.5929 19.7299H64.4487V19.8739H64.5929V19.7299ZM64.5929 15.4022H64.7371V15.2582H64.5929V15.4022ZM61.2813 15.4022V15.2582H61.1371V15.4022H61.2813ZM76.8698 14.9452V15.0892H77.014V14.9452H76.8698ZM76.8698 0.564435H77.014V0.420435H76.8698V0.564435ZM73.4237 0.564435V0.420435H73.2794V0.564435H73.4237ZM73.4237 14.9452H73.2794V15.0892H73.4237V14.9452ZM66.5852 5.02652H66.7294V4.88252H66.5852V5.02652ZM66.5852 9.81116V9.95516H66.7294V9.81116H66.5852ZM61.739 9.81116H61.5948V9.95516H61.739V9.81116ZM61.739 5.02652V4.88252H61.5948V5.02652H61.739ZM69.789 1.79132H58.5352V2.07932H69.789V1.79132ZM58.391 1.93532V12.8486H58.6794V1.93532H58.391ZM58.5352 12.9926H69.789V12.7046H58.5352V12.9926ZM69.9333 12.8486V1.93532H69.6448V12.8486H69.9333ZM61.2813 23.0457H77.139V22.7577H61.2813V23.0457ZM77.2833 22.9017V19.7299H76.9948V22.9017H77.2833ZM77.139 19.5859H64.5929V19.8739H77.139V19.5859ZM64.7371 19.7299V15.4022H64.4487V19.7299H64.7371ZM64.5929 15.2582H61.2813V15.5462H64.5929V15.2582ZM61.1371 15.4022V22.9017H61.4256V15.4022H61.1371ZM77.014 14.9452V0.564435H76.7256V14.9452H77.014ZM76.8698 0.420435H73.4237V0.708435H76.8698V0.420435ZM73.2794 0.564435V14.9452H73.5679V0.564435H73.2794ZM73.4237 15.0892H76.8698V14.8012H73.4237V15.0892ZM66.441 5.02652V9.81116H66.7294V5.02652H66.441ZM66.5852 9.66716H61.739V9.95516H66.5852V9.66716ZM61.8833 9.81116V5.02652H61.5948V9.81116H61.8833ZM61.739 5.17052H66.5852V4.88252H61.739V5.17052ZM97.4 15.671H97.5442V15.527H97.4V15.671ZM81.1653 15.671V15.527H81.0211V15.671H81.1653ZM81.1653 18.7622H81.0211V18.9062H81.1653V18.7622ZM94.1153 18.7622L94.2592 18.7537L94.2513 18.6182H94.1153V18.7622ZM94.0345 20.1868L93.892 20.1644V20.1646L94.0345 20.1868ZM92.9845 23.4124L92.8566 23.3457L92.7463 23.5564H92.9845V23.4124ZM96.2962 23.4124V23.5564H96.3875L96.4269 23.4733L96.2962 23.4124ZM96.8346 22.0953L96.6981 22.0471V22.0498L96.8346 22.0953ZM99.4462 10.8326H99.5904V10.6886H99.4462V10.8326ZM91.1268 10.8326H90.9826V10.9766H91.1268V10.8326ZM91.1268 8.06396H91.2711V7.91996H91.1268V8.06396ZM87.3845 8.06396V7.91996H87.2403V8.06396H87.3845ZM87.3845 10.8326V10.9766H87.5288V10.8326H87.3845ZM79.0114 10.8326V10.6886H78.8672V10.8326H79.0114ZM79.0114 13.9238H78.8672V14.0678H79.0114V13.9238ZM99.4462 13.9238V14.0678H99.5904V13.9238H99.4462ZM81.1922 0.564435V0.420435H81.048V0.564435H81.1922ZM81.1922 3.27932H81.048V3.42332H81.1922V3.27932ZM86.6307 3.27932L86.7692 3.31936L86.8225 3.13532H86.6307V3.27932ZM81.2999 7.09628L81.2552 6.95937L81.1557 6.99177V7.09628H81.2999ZM81.2999 9.7574H81.1557V9.94076L81.3341 9.89727L81.2999 9.7574ZM89.0537 5.48348L89.1619 5.38825L89.0498 5.26133L88.9423 5.39207L89.0537 5.48348ZM96.7808 9.40796L96.7644 9.55104L96.925 9.56911V9.40796H96.7808ZM96.7808 6.96188H96.925V6.85217L96.8192 6.82304L96.7808 6.96188ZM91.2884 3.27932V3.13532H91.0229L91.1673 3.35768L91.2884 3.27932ZM96.8885 3.27932V3.42332H97.0327V3.27932H96.8885ZM96.8885 0.564435H97.0327V0.420435H96.8885V0.564435ZM97.4 15.527H81.1653V15.815H97.4V15.527ZM81.0211 15.671V18.7622H81.3095V15.671H81.0211ZM81.1653 18.9062H94.1153V18.6182H81.1653V18.9062ZM93.9713 18.7706C93.9975 19.2158 93.9714 19.6623 93.892 20.1644L94.1769 20.2093C94.259 19.6899 94.2868 19.2225 94.2592 18.7537L93.9713 18.7706ZM93.892 20.1646C93.7591 21.0139 93.4667 22.1806 92.8566 23.3457L93.1123 23.4792C93.7407 22.2789 94.0407 21.0801 94.177 20.2091L93.892 20.1646ZM92.9845 23.5564H96.2962V23.2684H92.9845V23.5564ZM96.4269 23.4733C96.6163 23.068 96.8077 22.6322 96.9712 22.1408L96.6981 22.0498C96.5385 22.5261 96.3529 22.9505 96.1654 23.3516L96.4269 23.4733ZM96.9702 22.1435C97.2712 21.2978 97.5442 20.1793 97.5442 18.7891H97.2558C97.2558 20.1406 96.9904 21.2262 96.699 22.0471L96.9702 22.1435ZM97.5442 18.7891V15.671H97.2558V18.7891H97.5442ZM99.4462 10.6886H91.1268V10.9766H99.4462V10.6886ZM91.2711 10.8326V8.06396H90.9826V10.8326H91.2711ZM91.1268 7.91996H87.3845V8.20796H91.1268V7.91996ZM87.2403 8.06396V10.8326H87.5288V8.06396H87.2403ZM87.3845 10.6886H79.0114V10.9766H87.3845V10.6886ZM78.8672 10.8326V13.9238H79.1557V10.8326H78.8672ZM79.0114 14.0678H99.4462V13.7798H79.0114V14.0678ZM99.5904 13.9238V10.8326H99.3019V13.9238H99.5904ZM81.048 0.564435V3.27932H81.3364V0.564435H81.048ZM81.1922 3.42332H86.6307V3.13532H81.1922V3.42332ZM86.4921 3.23927C86.4278 3.46108 86.2318 3.75651 85.9156 4.09502C85.603 4.4297 85.1853 4.7935 84.6975 5.15253C83.7214 5.87096 82.4763 6.56181 81.2552 6.95937L81.3446 7.23318C82.6004 6.82435 83.8726 6.11742 84.8687 5.38435C85.3669 5.01761 85.7989 4.64221 86.1265 4.29144C86.4507 3.94452 86.6854 3.60827 86.7692 3.31936L86.4921 3.23927ZM81.1557 7.09628V9.7574H81.4441V7.09628H81.1557ZM81.3341 9.89727C82.5015 9.61263 83.9861 9.10504 85.4136 8.38396C86.8397 7.66359 88.2187 6.72526 89.1652 5.57488L88.9423 5.39207C88.0311 6.49961 86.6909 7.416 85.2834 8.12699C83.8772 8.83727 82.4137 9.33764 81.2657 9.61752L81.3341 9.89727ZM88.9456 5.5787C90.7713 7.64637 93.1456 9.14355 96.7644 9.55104L96.7971 9.26486C93.2542 8.86596 90.9438 7.40635 89.1619 5.38825L88.9456 5.5787ZM96.925 9.40796V6.96188H96.6365V9.40796H96.925ZM96.8192 6.82304C94.9788 6.31716 92.6748 5.14876 91.4093 3.20095L91.1673 3.35768C92.4864 5.38811 94.8671 6.58515 96.7423 7.10071L96.8192 6.82304ZM91.2884 3.42332H96.8885V3.13532H91.2884V3.42332ZM97.0327 3.27932V0.564435H96.7442V3.27932H97.0327ZM96.8885 0.420435H81.1922V0.708435H96.8885V0.420435Z" fill="#1E1E1E"/>
</svg>
